<mxfile host="app.diagrams.net" modified="2020-10-28T13:01:04.608Z" agent="5.0 (Windows NT 10.0; Win64; x64) AppleWebKit/537.36 (KHTML, like Gecko) Chrome/86.0.4240.111 Safari/537.36" etag="4rU0Y1LY4roN14npzmpl" version="13.8.5" type="github">
  <diagram id="U9IgvnIcBCubF6fyTGkA" name="Page-1">
    <mxGraphModel dx="1185" dy="635" grid="1" gridSize="10" guides="1" tooltips="1" connect="1" arrows="1" fold="1" page="1" pageScale="1" pageWidth="827" pageHeight="1169" math="0" shadow="0">
      <root>
        <mxCell id="0" />
        <mxCell id="1" parent="0" />
        <mxCell id="Zoh72DYlKRkxCMaAAv2T-19" value="" style="group" vertex="1" connectable="0" parent="1">
          <mxGeometry x="94" y="250" width="160" height="138" as="geometry" />
        </mxCell>
        <mxCell id="Zoh72DYlKRkxCMaAAv2T-1" value="User" style="swimlane;fontStyle=1;align=center;verticalAlign=top;childLayout=stackLayout;horizontal=1;startSize=26;horizontalStack=0;resizeParent=1;resizeParentMax=0;resizeLast=0;collapsible=1;marginBottom=0;" vertex="1" parent="Zoh72DYlKRkxCMaAAv2T-19">
          <mxGeometry width="160" height="86" as="geometry" />
        </mxCell>
        <mxCell id="Zoh72DYlKRkxCMaAAv2T-2" value="ID: serial primary key&#xa;" style="text;strokeColor=none;fillColor=none;align=left;verticalAlign=top;spacingLeft=4;spacingRight=4;overflow=hidden;rotatable=0;points=[[0,0.5],[1,0.5]];portConstraint=eastwest;" vertex="1" parent="Zoh72DYlKRkxCMaAAv2T-1">
          <mxGeometry y="26" width="160" height="26" as="geometry" />
        </mxCell>
        <mxCell id="Zoh72DYlKRkxCMaAAv2T-3" value="" style="line;strokeWidth=1;fillColor=none;align=left;verticalAlign=middle;spacingTop=-1;spacingLeft=3;spacingRight=3;rotatable=0;labelPosition=right;points=[];portConstraint=eastwest;" vertex="1" parent="Zoh72DYlKRkxCMaAAv2T-1">
          <mxGeometry y="52" width="160" height="8" as="geometry" />
        </mxCell>
        <mxCell id="Zoh72DYlKRkxCMaAAv2T-4" value="Name: varchar(50)" style="text;strokeColor=none;fillColor=none;align=left;verticalAlign=top;spacingLeft=4;spacingRight=4;overflow=hidden;rotatable=0;points=[[0,0.5],[1,0.5]];portConstraint=eastwest;" vertex="1" parent="Zoh72DYlKRkxCMaAAv2T-1">
          <mxGeometry y="60" width="160" height="26" as="geometry" />
        </mxCell>
        <mxCell id="Zoh72DYlKRkxCMaAAv2T-5" value="email: varchar(50)" style="text;fillColor=none;align=left;verticalAlign=top;spacingLeft=4;spacingRight=4;overflow=hidden;rotatable=0;points=[[0,0.5],[1,0.5]];portConstraint=eastwest;strokeColor=#000000;" vertex="1" parent="Zoh72DYlKRkxCMaAAv2T-19">
          <mxGeometry y="86" width="160" height="26" as="geometry" />
        </mxCell>
        <mxCell id="Zoh72DYlKRkxCMaAAv2T-6" value="password: varchar(50)" style="text;fillColor=none;align=left;verticalAlign=top;spacingLeft=4;spacingRight=4;overflow=hidden;rotatable=0;points=[[0,0.5],[1,0.5]];portConstraint=eastwest;strokeColor=#000000;" vertex="1" parent="Zoh72DYlKRkxCMaAAv2T-19">
          <mxGeometry y="112" width="160" height="26" as="geometry" />
        </mxCell>
        <mxCell id="Zoh72DYlKRkxCMaAAv2T-26" value="" style="group" vertex="1" connectable="0" parent="1">
          <mxGeometry x="320" y="110" width="160" height="112" as="geometry" />
        </mxCell>
        <mxCell id="Zoh72DYlKRkxCMaAAv2T-20" value="Saved articles" style="swimlane;fontStyle=1;align=center;verticalAlign=top;childLayout=stackLayout;horizontal=1;startSize=26;horizontalStack=0;resizeParent=1;resizeParentMax=0;resizeLast=0;collapsible=1;marginBottom=0;strokeColor=#000000;" vertex="1" parent="Zoh72DYlKRkxCMaAAv2T-26">
          <mxGeometry width="160" height="86" as="geometry" />
        </mxCell>
        <mxCell id="Zoh72DYlKRkxCMaAAv2T-21" value="ID: serial" style="text;strokeColor=none;fillColor=none;align=left;verticalAlign=top;spacingLeft=4;spacingRight=4;overflow=hidden;rotatable=0;points=[[0,0.5],[1,0.5]];portConstraint=eastwest;" vertex="1" parent="Zoh72DYlKRkxCMaAAv2T-20">
          <mxGeometry y="26" width="160" height="26" as="geometry" />
        </mxCell>
        <mxCell id="Zoh72DYlKRkxCMaAAv2T-22" value="" style="line;strokeWidth=1;fillColor=none;align=left;verticalAlign=middle;spacingTop=-1;spacingLeft=3;spacingRight=3;rotatable=0;labelPosition=right;points=[];portConstraint=eastwest;" vertex="1" parent="Zoh72DYlKRkxCMaAAv2T-20">
          <mxGeometry y="52" width="160" height="8" as="geometry" />
        </mxCell>
        <mxCell id="Zoh72DYlKRkxCMaAAv2T-23" value="user_id: int fk" style="text;strokeColor=none;fillColor=none;align=left;verticalAlign=top;spacingLeft=4;spacingRight=4;overflow=hidden;rotatable=0;points=[[0,0.5],[1,0.5]];portConstraint=eastwest;" vertex="1" parent="Zoh72DYlKRkxCMaAAv2T-20">
          <mxGeometry y="60" width="160" height="26" as="geometry" />
        </mxCell>
        <mxCell id="Zoh72DYlKRkxCMaAAv2T-24" value="article_id: int fk" style="text;fillColor=none;align=left;verticalAlign=top;spacingLeft=4;spacingRight=4;overflow=hidden;rotatable=0;points=[[0,0.5],[1,0.5]];portConstraint=eastwest;strokeColor=#000000;" vertex="1" parent="Zoh72DYlKRkxCMaAAv2T-26">
          <mxGeometry y="86" width="160" height="26" as="geometry" />
        </mxCell>
        <mxCell id="Zoh72DYlKRkxCMaAAv2T-29" value="" style="group" vertex="1" connectable="0" parent="1">
          <mxGeometry x="500" y="310" width="160" height="130" as="geometry" />
        </mxCell>
        <mxCell id="Zoh72DYlKRkxCMaAAv2T-18" value="" style="group" vertex="1" connectable="0" parent="Zoh72DYlKRkxCMaAAv2T-29">
          <mxGeometry width="160" height="104" as="geometry" />
        </mxCell>
        <mxCell id="Zoh72DYlKRkxCMaAAv2T-7" value="Article" style="swimlane;fontStyle=1;align=center;verticalAlign=top;childLayout=stackLayout;horizontal=1;startSize=26;horizontalStack=0;resizeParent=1;resizeParentMax=0;resizeLast=0;collapsible=1;marginBottom=0;strokeColor=#000000;" vertex="1" parent="Zoh72DYlKRkxCMaAAv2T-18">
          <mxGeometry width="160" height="52" as="geometry" />
        </mxCell>
        <mxCell id="Zoh72DYlKRkxCMaAAv2T-15" value="ID: serial pk" style="text;strokeColor=none;fillColor=none;align=left;verticalAlign=top;spacingLeft=4;spacingRight=4;overflow=hidden;rotatable=0;points=[[0,0.5],[1,0.5]];portConstraint=eastwest;" vertex="1" parent="Zoh72DYlKRkxCMaAAv2T-7">
          <mxGeometry y="26" width="160" height="26" as="geometry" />
        </mxCell>
        <mxCell id="Zoh72DYlKRkxCMaAAv2T-10" value="body: text" style="text;fillColor=none;align=left;verticalAlign=top;spacingLeft=4;spacingRight=4;overflow=hidden;rotatable=0;points=[[0,0.5],[1,0.5]];portConstraint=eastwest;strokeColor=#000000;" vertex="1" parent="Zoh72DYlKRkxCMaAAv2T-18">
          <mxGeometry y="78" width="160" height="26" as="geometry" />
        </mxCell>
        <mxCell id="Zoh72DYlKRkxCMaAAv2T-8" value="title: varchar(100)" style="text;fillColor=none;align=left;verticalAlign=top;spacingLeft=4;spacingRight=4;overflow=hidden;rotatable=0;points=[[0,0.5],[1,0.5]];portConstraint=eastwest;strokeColor=#000000;" vertex="1" parent="Zoh72DYlKRkxCMaAAv2T-18">
          <mxGeometry y="52" width="160" height="26" as="geometry" />
        </mxCell>
        <mxCell id="Zoh72DYlKRkxCMaAAv2T-27" value="user_id: int fk" style="text;fillColor=none;align=left;verticalAlign=top;spacingLeft=4;spacingRight=4;overflow=hidden;rotatable=0;points=[[0,0.5],[1,0.5]];portConstraint=eastwest;strokeColor=#000000;" vertex="1" parent="Zoh72DYlKRkxCMaAAv2T-29">
          <mxGeometry y="104" width="160" height="26" as="geometry" />
        </mxCell>
        <mxCell id="Zoh72DYlKRkxCMaAAv2T-30" value="" style="group" vertex="1" connectable="0" parent="1">
          <mxGeometry x="290" y="430" width="160" height="136" as="geometry" />
        </mxCell>
        <mxCell id="Zoh72DYlKRkxCMaAAv2T-17" value="" style="group" vertex="1" connectable="0" parent="Zoh72DYlKRkxCMaAAv2T-30">
          <mxGeometry width="160" height="110" as="geometry" />
        </mxCell>
        <mxCell id="Zoh72DYlKRkxCMaAAv2T-11" value="Comments" style="swimlane;fontStyle=1;align=center;verticalAlign=top;childLayout=stackLayout;horizontal=1;startSize=26;horizontalStack=0;resizeParent=1;resizeParentMax=0;resizeLast=0;collapsible=1;marginBottom=0;strokeColor=#000000;" vertex="1" parent="Zoh72DYlKRkxCMaAAv2T-17">
          <mxGeometry width="160" height="86" as="geometry" />
        </mxCell>
        <mxCell id="Zoh72DYlKRkxCMaAAv2T-12" value="ID: serial" style="text;strokeColor=none;fillColor=none;align=left;verticalAlign=top;spacingLeft=4;spacingRight=4;overflow=hidden;rotatable=0;points=[[0,0.5],[1,0.5]];portConstraint=eastwest;" vertex="1" parent="Zoh72DYlKRkxCMaAAv2T-11">
          <mxGeometry y="26" width="160" height="26" as="geometry" />
        </mxCell>
        <mxCell id="Zoh72DYlKRkxCMaAAv2T-13" value="" style="line;strokeWidth=1;fillColor=none;align=left;verticalAlign=middle;spacingTop=-1;spacingLeft=3;spacingRight=3;rotatable=0;labelPosition=right;points=[];portConstraint=eastwest;" vertex="1" parent="Zoh72DYlKRkxCMaAAv2T-11">
          <mxGeometry y="52" width="160" height="8" as="geometry" />
        </mxCell>
        <mxCell id="Zoh72DYlKRkxCMaAAv2T-14" value="user_id: int fk&#xa;" style="text;strokeColor=none;fillColor=none;align=left;verticalAlign=top;spacingLeft=4;spacingRight=4;overflow=hidden;rotatable=0;points=[[0,0.5],[1,0.5]];portConstraint=eastwest;" vertex="1" parent="Zoh72DYlKRkxCMaAAv2T-11">
          <mxGeometry y="60" width="160" height="26" as="geometry" />
        </mxCell>
        <mxCell id="Zoh72DYlKRkxCMaAAv2T-16" value="article_id: int fk&#xa;" style="text;fillColor=none;align=left;verticalAlign=top;spacingLeft=4;spacingRight=4;overflow=hidden;rotatable=0;points=[[0,0.5],[1,0.5]];portConstraint=eastwest;strokeColor=#000000;" vertex="1" parent="Zoh72DYlKRkxCMaAAv2T-17">
          <mxGeometry y="86" width="160" height="24" as="geometry" />
        </mxCell>
        <mxCell id="Zoh72DYlKRkxCMaAAv2T-25" value="body: text" style="text;fillColor=none;align=left;verticalAlign=top;spacingLeft=4;spacingRight=4;overflow=hidden;rotatable=0;points=[[0,0.5],[1,0.5]];portConstraint=eastwest;strokeColor=#000000;" vertex="1" parent="Zoh72DYlKRkxCMaAAv2T-30">
          <mxGeometry y="110" width="160" height="26" as="geometry" />
        </mxCell>
        <mxCell id="Zoh72DYlKRkxCMaAAv2T-35" value="" style="endArrow=classic;html=1;exitX=1;exitY=0.5;exitDx=0;exitDy=0;entryX=0;entryY=0.5;entryDx=0;entryDy=0;" edge="1" parent="1" source="Zoh72DYlKRkxCMaAAv2T-2" target="Zoh72DYlKRkxCMaAAv2T-27">
          <mxGeometry relative="1" as="geometry">
            <mxPoint x="280" y="380" as="sourcePoint" />
            <mxPoint x="380" y="380" as="targetPoint" />
          </mxGeometry>
        </mxCell>
        <mxCell id="Zoh72DYlKRkxCMaAAv2T-36" value="1кМ" style="edgeLabel;resizable=0;html=1;align=center;verticalAlign=middle;" connectable="0" vertex="1" parent="Zoh72DYlKRkxCMaAAv2T-35">
          <mxGeometry relative="1" as="geometry" />
        </mxCell>
        <mxCell id="Zoh72DYlKRkxCMaAAv2T-37" value="" style="endArrow=classic;html=1;exitX=1;exitY=0.5;exitDx=0;exitDy=0;entryX=0;entryY=0.5;entryDx=0;entryDy=0;" edge="1" parent="1" source="Zoh72DYlKRkxCMaAAv2T-2" target="Zoh72DYlKRkxCMaAAv2T-23">
          <mxGeometry relative="1" as="geometry">
            <mxPoint x="264" y="299" as="sourcePoint" />
            <mxPoint x="510" y="437" as="targetPoint" />
          </mxGeometry>
        </mxCell>
        <mxCell id="Zoh72DYlKRkxCMaAAv2T-38" value="1кМ" style="edgeLabel;resizable=0;html=1;align=center;verticalAlign=middle;" connectable="0" vertex="1" parent="Zoh72DYlKRkxCMaAAv2T-37">
          <mxGeometry relative="1" as="geometry" />
        </mxCell>
        <mxCell id="Zoh72DYlKRkxCMaAAv2T-39" value="" style="endArrow=classic;html=1;exitX=1;exitY=0.5;exitDx=0;exitDy=0;entryX=0;entryY=0.5;entryDx=0;entryDy=0;" edge="1" parent="1" source="Zoh72DYlKRkxCMaAAv2T-2" target="Zoh72DYlKRkxCMaAAv2T-14">
          <mxGeometry relative="1" as="geometry">
            <mxPoint x="274" y="309" as="sourcePoint" />
            <mxPoint x="520" y="447" as="targetPoint" />
          </mxGeometry>
        </mxCell>
        <mxCell id="Zoh72DYlKRkxCMaAAv2T-40" value="1кМ" style="edgeLabel;resizable=0;html=1;align=center;verticalAlign=middle;" connectable="0" vertex="1" parent="Zoh72DYlKRkxCMaAAv2T-39">
          <mxGeometry relative="1" as="geometry" />
        </mxCell>
        <mxCell id="Zoh72DYlKRkxCMaAAv2T-41" value="" style="endArrow=classic;html=1;exitX=0;exitY=0.5;exitDx=0;exitDy=0;entryX=1;entryY=0.5;entryDx=0;entryDy=0;" edge="1" parent="1" source="Zoh72DYlKRkxCMaAAv2T-15" target="Zoh72DYlKRkxCMaAAv2T-16">
          <mxGeometry relative="1" as="geometry">
            <mxPoint x="284" y="319" as="sourcePoint" />
            <mxPoint x="530" y="457" as="targetPoint" />
          </mxGeometry>
        </mxCell>
        <mxCell id="Zoh72DYlKRkxCMaAAv2T-42" value="1кМ" style="edgeLabel;resizable=0;html=1;align=center;verticalAlign=middle;" connectable="0" vertex="1" parent="Zoh72DYlKRkxCMaAAv2T-41">
          <mxGeometry relative="1" as="geometry" />
        </mxCell>
        <mxCell id="Zoh72DYlKRkxCMaAAv2T-43" value="" style="endArrow=classic;html=1;exitX=1;exitY=0.5;exitDx=0;exitDy=0;entryX=0;entryY=0.5;entryDx=0;entryDy=0;" edge="1" parent="1" source="Zoh72DYlKRkxCMaAAv2T-24" target="Zoh72DYlKRkxCMaAAv2T-15">
          <mxGeometry relative="1" as="geometry">
            <mxPoint x="294" y="329" as="sourcePoint" />
            <mxPoint x="540" y="467" as="targetPoint" />
          </mxGeometry>
        </mxCell>
        <mxCell id="Zoh72DYlKRkxCMaAAv2T-44" value="1к1" style="edgeLabel;resizable=0;html=1;align=center;verticalAlign=middle;" connectable="0" vertex="1" parent="Zoh72DYlKRkxCMaAAv2T-43">
          <mxGeometry relative="1" as="geometry" />
        </mxCell>
      </root>
    </mxGraphModel>
  </diagram>
</mxfile>
